<svg xmlns="http://www.w3.org/2000/svg" width="23" height="22" viewBox="0 0 23 22" fill="none">
	<g id="Document">
		<path id="Union" fill-rule="evenodd" clip-rule="evenodd" d="M12.8566 2.38852L17.4766 6.78852C17.6086 6.91424 17.6746 7.03995 17.6746 7.22852V18.5428C17.6746 19.2342 17.0806 19.7999 16.3546 19.7999H5.79461C5.06861 19.7999 4.47461 19.2342 4.47461 18.5428V3.45709C4.47461 2.76567 5.06861 2.19995 5.79461 2.19995H12.3946C12.5926 2.19995 12.7246 2.26281 12.8566 2.38852ZM16.0906 7.22852L12.3946 3.70852V7.22852H16.0906ZM5.79461 3.45709V18.5428H16.3546V8.48567H12.3946C11.6686 8.48567 11.0746 7.91995 11.0746 7.22852V3.45709H5.79461ZM15.0333 14.7714H7.11328V16.0286H15.0333V14.7714ZM15.0333 11H7.11328V12.2571H15.0333V11Z" fill="currentColor"/>
	</g>
</svg>